<?xml version="1.0" encoding="UTF-8" standalone="no"?>
<!-- Created with Inkscape (http://www.inkscape.org/) -->

<svg
   xmlns:dc="http://purl.org/dc/elements/1.1/"
   xmlns:cc="http://creativecommons.org/ns#"
   xmlns:rdf="http://www.w3.org/1999/02/22-rdf-syntax-ns#"
   xmlns:svg="http://www.w3.org/2000/svg"
   xmlns="http://www.w3.org/2000/svg"
   xmlns:sodipodi="http://sodipodi.sourceforge.net/DTD/sodipodi-0.dtd"
   xmlns:inkscape="http://www.inkscape.org/namespaces/inkscape"
   width="531.49603"
   height="460.62991"
   id="svg2"
   version="1.1"
   inkscape:version="0.48.4 r9939"
   sodipodi:docname="logo.svg">
  <defs
     id="defs4" />
  <sodipodi:namedview
     id="base"
     pagecolor="#ffffff"
     bordercolor="#666666"
     borderopacity="1.0"
     inkscape:pageopacity="0.0"
     inkscape:pageshadow="2"
     inkscape:zoom="1.28"
     inkscape:cx="315.66589"
     inkscape:cy="302.48287"
     inkscape:document-units="px"
     inkscape:current-layer="layer1"
     showgrid="false"
     showguides="true"
     inkscape:guide-bbox="true"
     inkscape:window-width="1863"
     inkscape:window-height="1070"
     inkscape:window-x="2085"
     inkscape:window-y="11"
     inkscape:window-maximized="0"
     units="mm" />
  <metadata
     id="metadata7">
    <rdf:RDF>
      <cc:Work
         rdf:about="">
        <dc:format>image/svg+xml</dc:format>
        <dc:type
           rdf:resource="http://purl.org/dc/dcmitype/StillImage" />
        <dc:title />
      </cc:Work>
    </rdf:RDF>
  </metadata>
  <g
     inkscape:label="Ebene 1"
     inkscape:groupmode="layer"
     id="layer1"
     transform="translate(0,-591.73227)">
    <path
       style="fill:#eeeeec;stroke:#2e3436;stroke-width:0.97449976;stroke-linecap:butt;stroke-linejoin:miter;stroke-miterlimit:4;stroke-opacity:1;stroke-dasharray:none"
       d="m 249.43604,743.95565 c -5.01011,3.08352 -9.71704,6.00064 -9.71704,6.00064 l -0.74746,0.0326 c -3.30639,21.47097 -6.21659,40.3958 -6.3697,41.71102 0.20209,1.128 1.5774,3.21026 3.54233,3.58734 3.33999,0.6411 4.58228,-1.14143 4.58228,-1.14143 l 8.70959,-50.19019 z"
       id="path3835"
       inkscape:connector-curvature="0" />
    <path
       style="fill:#eeeeec;stroke:#2e3436;stroke-width:0.97449976;stroke-linecap:butt;stroke-linejoin:miter;stroke-miterlimit:4;stroke-opacity:1;stroke-dasharray:none"
       d="m 218.14002,750.60854 -9.35956,0.2609 c 1.56393,17.15506 3.28333,35.92407 3.37984,37.17792 0.4144,1.06917 2.19107,2.87149 4.1923,2.86987 3.4017,-0.003 4.2573,-1.98934 4.2573,-1.98934 l -2.46988,-38.31935 z"
       id="path3837"
       inkscape:connector-curvature="0" />
    <path
       style="fill:none;stroke:#000000;stroke-width:10.62992095999999975;stroke-linecap:butt;stroke-linejoin:miter;stroke-miterlimit:4;stroke-opacity:1;stroke-dasharray:none"
       d="m 191.44375,858.64415 c 0,0 61.26989,42.30473 75.8997,46.45935 0,0 115.76202,111.9181 121.65018,118.3608 13.55634,14.8333 41.71346,20.0868 51.64494,9.2712 16.03491,-17.4622 6.35549,-32.5264 -4.35422,-45.50337 -5.16237,-6.25529 -85.2174,-87.28288 -85.2174,-87.28288 0,0 97.33648,27.61359 132.47753,32.10656 20.08141,2.56755 32.78106,-1.08639 37.98687,-13.51463 4.49759,-10.73747 -1.09241,-26.33162 -14.65056,-31.69902 -15.33268,-6.06991 -160.65107,-45.60684 -163.28754,-47.34864 -4.81206,-3.17912 -69.39072,-49.3971 -69.39072,-49.3971 0,0 68.03481,-42.5766 80.05914,-51.57284 10.55414,-7.8963 14.79322,-22.85643 8.0072,-33.69736 -8.83235,-14.11008 -21.51409,-11.22916 -38.16154,-5.13674 -7.70023,2.81804 -84.38762,50.25755 -84.38762,50.25755 l -60.28307,1.82826 c 0,0 12.99233,-110.52537 -67.79598,-131.08969 -56.343261,-14.34194 -79.119937,12.01362 -91.625813,32.31534 -17.7077435,28.74635 -18.1745168,72.05634 1.970459,110.16601 33.247555,62.89675 127.435974,23.326 127.435974,23.326 l -7.23871,27.10554 c 0,0 -64.008605,37.46858 -81.971589,49.56514 -12.039802,8.10779 -24.244763,25.41066 -4.926106,43.08714 8.996969,8.23218 35.059141,-1.03408 56.157735,-10.77179 26.65575,-12.3025 80.00114,-36.83483 80.00114,-36.83483 z"
       id="path2985"
       inkscape:connector-curvature="0"
       sodipodi:nodetypes="ccssscsasscsssccsssccsssc" />
    <path
       sodipodi:type="arc"
       style="fill:none;fill-rule:evenodd;stroke:#000000;stroke-width:7.73013559999999877;stroke-linecap:butt;stroke-linejoin:miter;stroke-opacity:1;fill-opacity:1;stroke-miterlimit:4;stroke-dasharray:none"
       id="path2987"
       sodipodi:cx="345"
       sodipodi:cy="239.50504"
       sodipodi:rx="17.857143"
       sodipodi:ry="17.857143"
       d="m 362.85714,239.50504 c 0,9.86222 -7.99491,17.85714 -17.85714,17.85714 -9.86223,0 -17.85714,-7.99492 -17.85714,-17.85714 0,-9.86223 7.99491,-17.85715 17.85714,-17.85715 9.86223,0 17.85714,7.99492 17.85714,17.85715 z"
       transform="matrix(1.3793129,0,0,1.3709546,-388.27391,354.02802)" />
    <path
       sodipodi:type="arc"
       style="fill:none;fill-rule:evenodd;stroke:#000000;stroke-width:11.41115270000000059;stroke-linecap:butt;stroke-linejoin:miter;stroke-opacity:1;fill-opacity:1;stroke-miterlimit:4;stroke-dasharray:none"
       id="path2987-5"
       sodipodi:cx="345"
       sodipodi:cy="239.50504"
       sodipodi:rx="16.581633"
       sodipodi:ry="16.581633"
       d="m 361.58163,239.50504 c 0,9.15778 -7.42385,16.58163 -16.58163,16.58163 -9.15778,0 -16.58163,-7.42385 -16.58163,-16.58163 0,-9.15779 7.42385,-16.58164 16.58163,-16.58164 9.15778,0 16.58163,7.42385 16.58163,16.58164 z"
       transform="matrix(0.93437324,0,0,0.92871117,-250.71803,511.93978)" />
    <path
       style="fill:#000000;stroke:none;stroke-width:0.97449976000000005;stroke-linecap:butt;stroke-linejoin:miter;stroke-miterlimit:4;stroke-opacity:1;stroke-dasharray:none;fill-opacity:1"
       d="m 206.26141,651.19522 c -9.43609,0.61264 -16.57669,8.70196 -15.96032,18.08087 0.49024,7.45952 5.74577,13.43637 12.62377,15.28052 0.84201,12.01088 8.99929,100.21732 9.25086,103.48601 0.4144,1.06917 2.16096,2.86555 4.16219,2.86393 3.4017,-0.003 4.27483,-1.99488 4.27483,-1.99488 l -6.71704,-105.0244 c 6.60603,-2.70458 11.04829,-9.34988 10.55682,-16.82845 -0.61638,-9.37892 -8.75502,-16.47624 -18.19111,-15.8636 z"
       id="path3007"
       inkscape:connector-curvature="0"
       sodipodi:nodetypes="sscccccss" />
    <path
       style="fill:#000000;stroke:none;stroke-width:0.97449976000000005;stroke-linecap:butt;stroke-linejoin:miter;stroke-miterlimit:4;stroke-opacity:1;stroke-dasharray:none;fill-opacity:1"
       d="m 260.34333,640.41579 c -9.38086,-1.18404 -17.94025,5.40625 -19.1315,14.73024 -0.94745,7.41589 3.06722,14.27786 9.46623,17.38971 -1.47385,11.95055 -17.6968,115.90635 -18.0759,119.16287 0.20209,1.12801 1.57262,3.22203 3.53755,3.59911 3.33999,0.6411 4.57873,-1.14954 4.57873,-1.14954 l 20.85802,-120.19365 c 7.00321,-1.40514 12.63703,-7.08836 13.58692,-14.52316 1.19126,-9.32403 -5.43918,-17.83153 -14.82005,-19.01558 z"
       id="path3007-6"
       inkscape:connector-curvature="0"
       sodipodi:nodetypes="sscccccss" />
  </g>
</svg>
