<?xml version="1.0" encoding="UTF-8" standalone="no"?>
<svg
   xmlns:dc="http://purl.org/dc/elements/1.1/"
   xmlns:cc="http://creativecommons.org/ns#"
   xmlns:rdf="http://www.w3.org/1999/02/22-rdf-syntax-ns#"
   xmlns:svg="http://www.w3.org/2000/svg"
   xmlns="http://www.w3.org/2000/svg"
   xmlns:sodipodi="http://sodipodi.sourceforge.net/DTD/sodipodi-0.dtd"
   xmlns:inkscape="http://www.inkscape.org/namespaces/inkscape"
   width="1320.0018"
   height="1285.9518"
   id="svg2"
   version="1.1"
   inkscape:version="0.48.2 r9819"
   sodipodi:docname="attention.svg">
  <metadata
     id="metadata16">
    <rdf:RDF>
      <cc:Work
         rdf:about="">
        <dc:format>image/svg+xml</dc:format>
        <dc:type
           rdf:resource="http://purl.org/dc/dcmitype/StillImage" />
      </cc:Work>
    </rdf:RDF>
  </metadata>
  <defs
     id="defs14" />
  <sodipodi:namedview
     pagecolor="#ffffff"
     bordercolor="#666666"
     borderopacity="1"
     objecttolerance="10"
     gridtolerance="10"
     guidetolerance="10"
     inkscape:pageopacity="0"
     inkscape:pageshadow="2"
     inkscape:window-width="1171"
     inkscape:window-height="882"
     id="namedview12"
     showgrid="false"
     fit-margin-bottom="200"
     fit-margin-left="20"
     fit-margin-top="20"
     fit-margin-right="20"
     inkscape:zoom="0.21015593"
     inkscape:cx="659.99855"
     inkscape:cy="732.97601"
     inkscape:window-x="0"
     inkscape:window-y="24"
     inkscape:window-maximized="0"
     inkscape:current-layer="svg2" />
  <g
     id="g4"
     transform="translate(19.997578,20.000028)">
    <title
       id="title6">Layer 1</title>
    <g
       id="svg_1"
       transform="matrix(2.30386,0,0,2.30386,-184.27052,-24.149642)">
      <path
         d="m 356.09457,89.475548 194.46872,326.218762 -385.28122,1.25 190.8125,-327.468762 z"
         id="white_bg"
         inkscape:connector-curvature="0"
         style="fill:#ffffff" />
      <path
         d="m 357.25082,10.53805 c -9.50637,-0.614389 -19.22397,3.87485 -25.3125,11.9375 L 81.313316,443.53806 c -1.694275,6.36373 -1.758369,10.41598 -0.25,16.40625 1.442383,5.72821 7.080101,11.6365 12.46875,13.0625 l 521.937474,0.15625 c 3.26355,-0.59244 7.76288,-2.1276 9.96875,-3.40625 8.04084,-4.6608 13.47736,-17.07087 7.78125,-26.5 L 379.50082,23.2568 c -3.70626,-6.135281 -11.17782,-10.556299 -18.1875,-12.125 -1.33816,-0.299459 -2.70446,-0.50598 -4.0625,-0.59375 z m -1.15625,78.937498 194.46872,326.218762 -385.28122,1.25 190.8125,-327.468762 z"
         id="foo"
         inkscape:connector-curvature="0"
         style="fill:#ea0000" />
      <path
         id="svg_2"
         d="m 349.16095,394.46277 c -8.79901,-4.216 -15.5,-14.35318 -15.5,-23.44824 0,-16.93473 17.68903,-29.69144 34.42505,-24.82614 11.29056,3.28225 18.96435,13.47518 18.87012,25.06481 -0.08,9.84498 -4.33942,17.09748 -13.03376,22.19272 -6.65499,3.90009 -17.78964,4.35737 -24.76141,1.01685 z m 2,-66.86991 c -1.09998,-0.60473 -3.6904,-2.7102 -5.75641,-4.6788 -7.21869,-6.87829 -7.20968,-6.81769 -11.91516,-80.41469 -4.1828,-65.4224 -4.21744,-66.43904 -2.42273,-71.13842 4.0379,-10.57305 13.03482,-15.20282 28.01532,-14.41655 9.52228,0.49978 16.85568,3.84517 21.62256,9.86383 4.07165,5.14087 4.95691,8.04693 4.95316,16.26008 -0.004,8.92481 -5.7031,118.37288 -6.513,125.07997 -1.06076,8.78443 -6.18747,15.91303 -13.7016,19.05188 -4.29407,1.79374 -11.37934,1.98856 -14.28214,0.3927 z"
         inkscape:connector-curvature="0"
         style="fill:#000000" />
    </g>
  </g>
</svg>
